<svg width="110" height="28" viewBox="0 0 110 28" fill="none" xmlns="http://www.w3.org/2000/svg">
<path d="M7.98194 10.6466C10.0433 10.6466 11.6253 11.3298 12.728 12.6961C13.8306 14.0384 14.3819 15.9919 14.3819 18.5567V27.042H10.9302V18.5567C10.9302 16.9507 10.6546 15.7642 10.1033 14.9972C9.55196 14.2062 8.62912 13.8106 7.33475 13.8106C6.25611 13.8106 5.33328 14.2661 4.56624 15.1769C3.82318 16.0638 3.45165 17.2383 3.45165 18.7005V27.042H0V10.9343H3.45165V12.9477C3.76326 12.3485 4.31456 11.8212 5.10556 11.3657C5.89657 10.8863 6.85536 10.6466 7.98194 10.6466Z" fill="white"/>
<path d="M19.6381 27.042V10.9343H23.0897V27.042H19.6381Z" fill="white"/>
<path d="M46.3266 10.6466C48.2681 10.6466 49.7662 11.3298 50.8209 12.6961C51.8995 14.0623 52.4389 16.0159 52.4389 18.5567V27.042H48.9872V18.5567C48.9872 16.9747 48.7235 15.7882 48.1962 14.9972C47.6928 14.2062 46.8539 13.8106 45.6794 13.8106C44.6007 13.8106 43.7258 14.2541 43.0547 15.141C42.4075 16.0279 42.0839 17.2144 42.0839 18.7005V27.042H38.6323V18.5567C38.6323 16.9747 38.3686 15.7882 37.8413 14.9972C37.3379 14.2062 36.499 13.8106 35.3244 13.8106C34.2458 13.8106 33.3709 14.2541 32.6997 15.141C32.0526 16.0279 31.729 17.2144 31.729 18.7005V27.042H28.2773V10.9343H31.729V12.9477C32.0645 12.4683 32.3761 12.0968 32.6638 11.8331C32.9514 11.5455 33.3829 11.2818 33.9582 11.0421C34.5574 10.7785 35.2286 10.6466 35.9716 10.6466C38.2487 10.6466 39.9027 11.5575 40.9334 13.3792C41.7244 12.3725 42.5154 11.6654 43.3064 11.2579C44.1213 10.8504 45.1281 10.6466 46.3266 10.6466Z" fill="white"/>
<path d="M60.8017 3.65039V12.9477C62.168 11.4137 63.8938 10.6466 65.9792 10.6466C68.2084 10.6466 70.102 11.4736 71.66 13.1275C73.242 14.7575 74.033 16.711 74.033 18.9881C74.033 21.3132 73.242 23.2907 71.66 24.9206C70.102 26.5266 68.2084 27.3296 65.9792 27.3296C63.8938 27.3296 62.168 26.5626 60.8017 25.0285V27.042H57.35V3.65039H60.8017ZM62.2039 22.6555C63.1627 23.6622 64.3252 24.1656 65.6915 24.1656C67.0578 24.1656 68.2084 23.6622 69.1432 22.6555C70.102 21.6488 70.5814 20.4263 70.5814 18.9881C70.5814 17.5499 70.102 16.3275 69.1432 15.3207C68.2084 14.314 67.0578 13.8106 65.6915 13.8106C64.3252 13.8106 63.1627 14.314 62.2039 15.3207C61.2691 16.3275 60.8017 17.5499 60.8017 18.9881C60.8017 20.4263 61.2691 21.6488 62.2039 22.6555Z" fill="white"/>
<path d="M84.8948 27.3296C82.8334 27.3296 81.2514 26.6585 80.1488 25.3161C79.0462 23.9499 78.4949 21.9843 78.4949 19.4196V10.9343H81.9465V19.7072C81.9465 21.1694 82.2222 22.284 82.7735 23.051C83.3248 23.7941 84.2476 24.1656 85.542 24.1656C86.6446 24.1656 87.5674 23.6982 88.3105 22.7634C89.0536 21.8285 89.4251 20.5701 89.4251 18.9881V10.9343H92.8768V27.042H89.4251V25.0285C89.1135 25.6278 88.5622 26.1671 87.7712 26.6465C86.9802 27.1019 86.0214 27.3296 84.8948 27.3296Z" fill="white"/>
<path d="M104.858 16.9747C108.286 17.7657 110 19.5155 110 22.224C110 23.7341 109.425 24.9686 108.274 25.9274C107.148 26.8622 105.817 27.3296 104.283 27.3296C101.862 27.3296 99.7409 26.4188 97.9192 24.5971L99.6451 22.0802C101.059 23.4465 102.533 24.1416 104.067 24.1656C104.858 24.1656 105.47 23.9858 105.901 23.6263C106.333 23.2428 106.548 22.8353 106.548 22.4038C106.548 21.5169 105.805 20.8578 104.319 20.4263C102.21 19.851 100.76 19.2039 99.9686 18.4848C99.1776 17.7417 98.7822 16.675 98.7822 15.2848C98.7822 14.0384 99.2615 12.9597 100.22 12.0489C101.203 11.114 102.545 10.6466 104.247 10.6466C105.973 10.6466 108.158 11.6654 109.524 12.768L107.906 15.2848C106.947 14.6136 105.901 13.8106 104.247 13.8106C103.624 13.8106 103.133 13.9425 102.773 14.2062C102.414 14.4698 102.234 14.7934 102.234 15.1769C102.234 15.6324 102.414 15.9919 102.773 16.2556C103.157 16.4953 103.852 16.735 104.858 16.9747Z" fill="white"/>
<rect x="28.285" y="0.0209961" width="24.2253" height="3.61571" fill="#FF001F"/>
</svg>
